<svg width="166" height="61" viewBox="0 0 166 61" fill="none" xmlns="http://www.w3.org/2000/svg">
<g clip-path="url(#clip0)">
<path fill-rule="evenodd" clip-rule="evenodd" d="M86.8047 16.7136C87.3295 16.7136 87.8505 16.7478 88.3601 16.8103L86.8557 19.6432L85.4097 16.7914C85.8684 16.7402 86.3328 16.7136 86.8047 16.7136ZM89.3077 16.9677C90.2553 17.163 91.1633 17.4645 92.0222 17.8627L88.5262 22.9426L87.3578 20.6368L89.3077 16.9677ZM92.8395 18.278C93.9231 18.8791 94.9084 19.6375 95.7654 20.5211L90.2912 26.422L88.9963 23.866L92.8395 18.278ZM96.377 21.1981C98.2156 23.3882 99.3255 26.2116 99.3255 29.2891C99.3255 32.5486 98.0778 35.5256 96.0391 37.7631L90.7291 27.2867L96.377 21.1981ZM95.3294 38.3736L89.0944 29.0482L90.0703 27.9978L95.3294 38.3736ZM88.5753 28.2689L87.2898 26.3443L88.4073 24.7193L89.6305 27.1312L88.5753 28.2689ZM86.7443 25.5327L85.6381 23.8755L86.8368 21.619L87.9392 23.7958L86.7443 25.5327ZM85.0643 23.0146L81.6118 17.8475C82.5103 17.4342 83.4654 17.1251 84.4621 16.9336L86.3328 20.6235L85.0643 23.0146ZM94.6857 39.0487C94.6743 39.0563 94.663 39.0638 94.6517 39.0752L87.2596 31.0279L88.4602 29.7347L94.6857 39.0487ZM86.6424 30.3528L85.4361 29.0426L86.7349 27.154L87.9392 28.9572L86.6424 30.3528ZM84.8057 28.3523L83.826 27.2867L85.153 24.7875L86.1893 26.3386L84.8057 28.3523ZM83.1729 26.5775L77.7232 20.6463C78.616 19.702 79.6505 18.8961 80.7925 18.2647L84.5773 23.9305L83.1729 26.5775ZM93.9212 39.6213C91.8976 41.0321 89.4436 41.8626 86.8028 41.8626C84.0563 41.8626 81.5117 40.9657 79.4447 39.4526L86.6386 31.6972L93.9212 39.6213ZM78.7274 38.8856C78.7142 38.8742 78.701 38.8628 78.6878 38.8515L84.9057 29.8086L86.0194 31.0222L78.7274 38.8856ZM78.0328 38.1992L83.3729 28.14L84.2771 29.1222L78.0328 38.1992ZM77.3589 37.5298C75.4448 35.3189 74.282 32.4367 74.282 29.2891C74.282 26.2741 75.3466 23.5019 77.1191 21.3327L82.7198 27.4308L77.3589 37.5298Z" fill="#20459B"/>
<path fill-rule="evenodd" clip-rule="evenodd" d="M70.0046 30.4305C69.8838 30.22 69.7649 30.0114 69.646 29.8048L83.2673 11.1369C83.2654 11.4934 83.3145 11.8518 83.4372 12.2196L78.5953 18.8543C76.7096 20.3504 75.2353 22.3471 74.3726 24.6415L68.0849 33.2577C67.8565 33.1686 67.6016 33.0946 67.3053 33.0131L69.3836 30.1631C69.5912 30.2333 69.797 30.3205 70.0046 30.4305ZM83.5825 12.5875C83.6939 12.8264 83.8336 13.0672 84.0129 13.3118L81.1229 17.2729C80.5528 17.546 80.0054 17.8589 79.4825 18.2077L83.5825 12.5875ZM73.6459 27.5199L69.0702 33.7924C68.8531 33.6255 68.6379 33.4966 68.4058 33.3885L74.0291 25.6825C73.8592 26.2798 73.7308 26.8922 73.6459 27.5199ZM86.2724 10.7861C86.8255 10.2723 87.4352 9.89681 88.0808 9.61997L83.0351 16.5334C82.5934 16.6662 82.1611 16.8197 81.7383 16.9961L86.2724 10.7861ZM73.5251 29.5696L69.8876 34.5509C69.6856 34.3366 69.5025 34.1584 69.3288 34.0029L73.5723 28.1911C73.5402 28.5666 73.5232 28.9477 73.5232 29.3326C73.5232 29.4122 73.5232 29.49 73.5251 29.5696ZM88.6546 9.4038C89.0378 9.27866 89.4286 9.18195 89.8288 9.1099L84.6868 16.1561C84.3036 16.2187 83.928 16.2964 83.5561 16.3912L88.6546 9.4038ZM73.661 31.2629L66.9749 40.4252L66.0405 40.3949L69.9367 35.0553C70.0763 35.0591 70.2198 35.0704 70.367 35.0894C70.2802 34.9889 70.1971 34.896 70.1179 34.8088L73.544 30.1119C73.5685 30.5007 73.6063 30.8856 73.661 31.2629ZM90.2969 9.03595C90.6612 8.98665 91.0312 8.95441 91.4012 8.93545L86.2498 15.9949C85.8817 16.0101 85.5136 16.0404 85.153 16.0859L90.2969 9.03595ZM73.9819 32.8083L68.3869 40.4745L67.3827 40.4404L73.7384 31.7294C73.8045 32.0972 73.8856 32.4556 73.9819 32.8083ZM91.8297 8.91838C92.1751 8.9089 92.5187 8.9089 92.8622 8.91459L92.4771 9.44362C91.556 10.331 91.0123 10.9454 90.8632 11.6565L87.6825 16.012C87.3956 15.993 87.103 15.9816 86.8123 15.9816C86.767 15.9816 86.7198 15.9816 86.6745 15.9835L91.8297 8.91838ZM74.4293 34.1735L69.797 40.5219L68.7927 40.4878L74.0989 33.2179C74.1971 33.5402 74.3085 33.8588 74.4293 34.1735ZM90.8254 12.2746C90.8538 12.5875 90.9425 12.9288 91.0916 13.3232L89.0152 16.1694C88.7056 16.1182 88.3923 16.0764 88.0751 16.0461L90.8254 12.2746ZM74.9805 35.4004L71.207 40.5712L70.2028 40.5371L74.5784 34.5414C74.703 34.8334 74.8351 35.1178 74.9805 35.4004ZM91.2407 13.6873C91.3427 13.9186 91.4616 14.1651 91.5994 14.4363C92.2336 13.2417 92.8528 12.4073 93.6003 11.865L90.2592 16.4424C89.9722 16.3647 89.6778 16.2945 89.3814 16.2357L91.2407 13.6873ZM75.6147 36.5115L72.6171 40.6186L71.6129 40.5845L75.1541 35.7322C75.2995 35.9958 75.4543 36.2555 75.6147 36.5115ZM94.3195 11.4498C94.7046 11.2791 95.1274 11.1654 95.6012 11.1047L91.4295 16.8197C91.1577 16.7174 90.884 16.6244 90.6027 16.5429L94.3195 11.4498ZM76.3264 37.5184L74.0215 40.6736C73.7101 40.6338 73.3797 40.6186 73.0286 40.6262L75.8129 36.8111C75.9753 37.0519 76.147 37.289 76.3264 37.5184ZM96.0467 11.0611C96.3563 11.0421 96.6866 11.0402 97.0396 11.0573C97.0453 11.0573 97.0509 11.0573 97.0566 11.0573L92.5149 17.2805C92.2657 17.1611 92.0109 17.0473 91.7542 16.943L96.0467 11.0611ZM77.0909 38.4191L75.2145 40.9884C74.9616 40.8803 74.6879 40.795 74.3934 40.7362L76.5434 37.7914C76.719 38.0076 76.9021 38.2143 77.0909 38.4191ZM97.4738 11.0573C97.991 11.0288 98.3761 10.8999 98.7404 10.7027L93.538 17.8285C93.3039 17.6901 93.0661 17.5574 92.8207 17.4322L97.4738 11.0573ZM77.9177 39.2363L73.2627 45.617C72.9607 45.579 72.6605 45.5316 72.3604 45.4729L73.9272 43.3245C74.7539 42.8941 75.4996 42.3328 76.0715 41.5098C75.9016 41.3695 75.7185 41.2463 75.5222 41.1401L77.3268 38.6656C77.5194 38.8628 77.7157 39.0524 77.9177 39.2363ZM99.5219 10.2002C99.822 9.99352 100.158 9.76218 100.579 9.52516C99.7503 11.573 98.7574 12.7714 96.9377 13.7442L99.5219 10.2002ZM95.8693 15.2061C95.8561 15.2838 95.8504 15.3635 95.8466 15.4431C95.8862 15.7598 95.9957 15.9968 96.1807 16.1599L94.5026 18.458C94.2817 18.3007 94.0571 18.149 93.8268 18.0049L95.8693 15.2061ZM78.803 39.9739L74.6445 45.6738C74.316 45.689 73.9838 45.6814 73.6516 45.6549L78.1706 39.4582C78.3764 39.6364 78.5878 39.8109 78.803 39.9739ZM97.4153 15.0373C97.7645 14.8648 98.1722 14.7946 98.6064 14.7889L95.4106 19.1691C95.2048 18.9928 94.9915 18.8221 94.7763 18.6571L97.4153 15.0373ZM79.7487 40.63L76.266 45.4046C75.8809 45.5241 75.4864 45.6018 75.0862 45.6416L79.0748 40.1749C79.2938 40.3323 79.5184 40.484 79.7487 40.63ZM99.0122 14.8003C99.3142 14.8231 99.6219 14.8705 99.9221 14.9331L96.2562 19.9579C96.0618 19.7626 95.8655 19.573 95.6616 19.391L99.0122 14.8003ZM80.751 41.2065L78.4783 44.3219L78.2008 44.3105C77.7742 44.6916 77.3174 44.978 76.8379 45.1884L80.0337 40.8064C80.2697 40.9486 80.5075 41.0813 80.751 41.2065ZM100.279 15.0165C100.573 15.0904 100.855 15.1739 101.108 15.2592L101.034 15.3616C99.9221 15.7029 99.1897 16.4633 98.9575 17.2331C99.2199 17.1895 99.486 17.1497 99.756 17.1137L97.0415 20.8302C96.8641 20.6159 96.681 20.4073 96.4903 20.2044L100.279 15.0165ZM81.8157 41.6995L79.8676 44.3655L78.8841 44.3351L81.0549 41.3582C81.3041 41.4814 81.5589 41.5914 81.8157 41.6995ZM100.213 17.0549C100.57 17.0132 100.934 16.9752 101.3 16.9468L97.7645 21.7915C97.604 21.5564 97.436 21.3251 97.2605 21.1013L100.213 17.0549ZM82.9445 42.1033L75.9224 51.7245C75.5751 51.7587 75.2259 51.7757 74.8729 51.7795L79.6807 45.1903C80.1092 44.868 80.5566 44.5968 81.0455 44.4053L80.2734 44.3788L82.1385 41.8227C82.4046 41.9251 82.6727 42.018 82.9445 42.1033ZM101.74 16.9146C102.131 16.888 102.525 16.8728 102.923 16.8615L98.4799 22.952C98.3176 22.6581 98.1458 22.3699 97.9664 22.0892L101.74 16.9146ZM84.2621 42.4333L77.693 51.4363C77.2608 51.5406 76.8228 51.6184 76.3754 51.6771L83.288 42.2038C83.607 42.293 83.9336 42.3669 84.2621 42.4333ZM103.341 16.8558C103.718 16.8539 104.096 16.8577 104.475 16.8709L99.0934 24.2452C98.9575 23.919 98.8102 23.5967 98.6517 23.2838L103.341 16.8558ZM85.6759 42.6324L79.777 50.7139C79.2711 50.9509 78.7463 51.1443 78.2084 51.2998L84.6302 42.4997C84.9756 42.5584 85.3248 42.6001 85.6759 42.6324ZM104.879 16.888C105.24 16.907 105.604 16.9316 105.963 16.9676L102.219 22.1006C102.044 22.112 101.864 22.1196 101.672 22.1177C101.829 22.148 101.981 22.1821 102.133 22.2201L99.5955 25.6938C99.4917 25.3279 99.3728 24.9676 99.2406 24.6149L104.879 16.888ZM87.2049 42.6741L84.9227 45.8028C84.8831 45.799 84.8454 45.7952 84.8076 45.7914C84.6623 46.0664 84.5112 46.328 84.3546 46.5802L83.288 48.0422C82.4443 49.0244 81.4853 49.798 80.4415 50.3745L86.0723 42.657C86.3177 42.6722 86.5631 42.6798 86.8123 42.6798C86.9425 42.6817 87.0728 42.6779 87.2049 42.6741ZM106.35 17.0094C106.699 17.0492 107.042 17.0966 107.388 17.1535L104.122 21.6303C103.705 21.8219 103.233 21.9717 102.669 22.0532L106.35 17.0094ZM107.758 17.216C108.092 17.2767 108.422 17.345 108.749 17.4227L107.208 19.5351C106.31 20.0167 105.661 20.7012 104.817 21.2435L107.758 17.216ZM109.102 17.51C109.421 17.5915 109.736 17.6825 110.046 17.783L109.172 18.9814C108.673 19.0402 108.216 19.135 107.816 19.2715L109.102 17.51ZM110.38 17.8949C110.682 18.0011 110.98 18.1148 111.273 18.2381L110.778 18.9169C110.372 18.9074 109.985 18.915 109.617 18.9397L110.38 17.8949ZM111.588 18.3765C111.875 18.5054 112.156 18.6458 112.428 18.7937L112.267 19.0155C111.895 18.9776 111.533 18.9492 111.184 18.934L111.588 18.3765ZM112.722 18.9586C112.8 19.0022 112.877 19.0478 112.953 19.0952C112.851 19.0819 112.751 19.0686 112.651 19.0572L112.722 18.9586ZM102.478 22.313C102.795 22.4059 103.097 22.514 103.384 22.6372L99.9504 27.3435C99.8881 26.9264 99.805 26.5149 99.705 26.1129L102.478 22.313ZM88.8774 42.5186L86.5084 45.763C86.1157 45.818 85.7193 45.8445 85.3173 45.8293L87.6353 42.6551C88.0544 42.6286 88.4697 42.585 88.8774 42.5186ZM103.697 22.7794C103.982 22.9178 104.252 23.0714 104.505 23.2383L100.1 29.2776C100.098 28.7865 100.067 28.303 100.015 27.827L103.697 22.7794ZM90.7575 42.0768L86.6028 47.7691C86.7292 47.3614 86.8953 46.9538 87.1124 46.5461L87.9619 45.4122C87.6391 45.5203 87.3144 45.6094 86.986 45.6795L89.355 42.4314C89.8325 42.3404 90.3007 42.2209 90.7575 42.0768ZM104.781 23.4317C105.032 23.6156 105.268 23.8147 105.491 24.0271L104.871 24.8747C104.269 24.9714 103.771 25.1288 103.382 25.3487L104.781 23.4317ZM105.73 24.2679C105.88 24.4253 106.023 24.5903 106.161 24.7628C105.868 24.7704 105.591 24.7875 105.332 24.814L105.73 24.2679ZM102.816 26.1262C103.046 26.2646 103.316 26.4258 103.609 26.6059L99.8881 31.7047C99.9976 31.1017 100.064 30.4874 100.086 29.8635L102.816 26.1262ZM93.0057 41.1363L86.2517 50.3915C86.2498 49.8018 86.2894 49.214 86.397 48.6243L91.3125 41.8872C91.8958 41.6767 92.462 41.4245 93.0057 41.1363ZM103.896 26.7804C104.143 26.9339 104.407 27.097 104.681 27.2715L98.3289 35.9787C98.9443 34.9055 99.4162 33.7374 99.7163 32.5087L103.896 26.7804ZM96.6092 38.3338L90.6631 46.4816C90.6197 46.3773 90.5668 46.2749 90.5102 46.1706C89.6985 46.7338 88.9378 47.4373 88.2205 48.2659L93.7211 40.7248C94.7914 40.0669 95.7636 39.2591 96.6092 38.3338ZM104.966 27.4516C105.217 27.6128 105.477 27.7815 105.74 27.9579L90.8462 48.3664C90.967 47.862 90.9538 47.3633 90.8028 46.8627L104.966 27.4516ZM106.019 28.1437C106.27 28.3125 106.527 28.4869 106.782 28.6652L89.8778 51.8288C89.9288 51.3851 90.0289 50.8959 90.1818 50.3555L90.5083 49.3998L106.019 28.1437ZM107.057 28.8567C107.308 29.033 107.558 29.215 107.807 29.3971L104.62 33.764C104.332 33.6786 104.082 33.4966 103.873 33.2236L107.057 28.8567ZM108.077 29.5981C108.324 29.782 108.568 29.9697 108.809 30.1612L106.119 33.8436C105.768 33.8322 105.419 33.8284 105.068 33.8284C105.041 33.8284 105.015 33.8246 104.99 33.8246L108.077 29.5981ZM109.072 30.3698C109.315 30.567 109.553 30.7623 109.783 30.9633L107.616 33.9327C107.254 33.9024 106.888 33.8815 106.525 33.8626L109.072 30.3698ZM110.036 31.1852C110.27 31.3956 110.499 31.608 110.718 31.8185L109.058 34.0882C108.705 34.0446 108.354 34.0029 108.003 33.9688L110.036 31.1852ZM110.959 32.0593C111.186 32.2887 111.401 32.5182 111.601 32.7476L110.461 34.3063C110.119 34.2475 109.779 34.1906 109.438 34.1432L110.959 32.0593ZM111.822 33.015C112.035 33.2785 112.228 33.5364 112.392 33.8L111.786 34.6305C111.62 34.5528 111.444 34.494 111.257 34.4599C111.116 34.4295 110.972 34.4011 110.829 34.3745L111.822 33.015ZM112.579 34.111C112.769 34.4523 112.909 34.7841 112.992 35.1103L112.762 35.4288C112.554 35.1766 112.33 34.9624 112.079 34.7955L112.579 34.111ZM113.07 35.5748C113.077 35.6677 113.079 35.7569 113.075 35.846C113.043 35.7986 113.011 35.7493 112.977 35.7057L113.07 35.5748ZM103.796 33.3297C103.697 33.5232 103.575 33.6919 103.424 33.8417L103.796 33.3297ZM103.199 34.1451C103.448 34.3632 103.652 34.6002 103.822 34.86L103.148 35.7815C102.791 35.662 102.457 35.6298 102.157 35.7189C102.251 36.0147 102.355 36.3522 102.465 36.722L99.0613 41.3809C98.7932 41.2292 98.5007 41.106 98.1854 41.0149L103.199 34.1451ZM104.009 35.1747C104.179 35.4971 104.303 35.846 104.398 36.2081L104.284 36.3598C104.007 36.1854 103.733 36.0299 103.469 35.9123L104.009 35.1747ZM102.58 37.1297C102.682 37.4956 102.782 37.8844 102.876 38.292L100.011 42.2133C99.8164 41.9573 99.5936 41.7431 99.3426 41.5648L102.58 37.1297ZM102.973 38.7301C103.059 39.1339 103.135 39.5568 103.197 39.9891L100.588 43.5634C100.466 43.2411 100.341 42.8922 100.215 42.5186C100.215 42.5148 100.213 42.5148 100.211 42.5148L102.973 38.7301ZM103.261 40.4707C103.271 40.5637 103.282 40.6566 103.292 40.7514C103.329 41.1173 103.359 41.489 103.392 41.8587L101.172 44.9021C101.021 44.6101 100.877 44.2877 100.734 43.9313L103.261 40.4707ZM103.435 42.3707C103.475 42.841 103.518 43.3036 103.571 43.7492L101.914 46.019C101.708 45.7857 101.523 45.5259 101.349 45.2264L103.435 42.3707ZM103.635 44.2328C103.697 44.6727 103.775 45.0879 103.875 45.4691L102.891 46.8172C102.616 46.658 102.372 46.4759 102.149 46.2655L103.635 44.2328ZM103.994 45.8767C104.113 46.2389 104.26 46.5575 104.443 46.8286L104.094 47.3027C103.76 47.2098 103.461 47.1036 103.19 46.9727L103.994 45.8767ZM104.66 47.0998C104.845 47.2989 105.06 47.4562 105.311 47.5549C105.002 47.5112 104.715 47.4544 104.447 47.3918L104.66 47.0998ZM98.1628 41.0472C98.276 41.5098 98.327 41.9517 98.3327 42.3802L96.8376 44.4281C96.6206 44.1721 96.3752 43.9806 96.1184 43.8459L98.1628 41.0472ZM98.3119 42.9775C98.2534 43.7189 98.0703 44.4338 97.8532 45.1733L97.4926 45.6701C97.3794 45.3003 97.2284 44.978 97.0509 44.7106L98.3119 42.9775ZM95.9882 44.0299C96.0259 44.5475 96.0297 45.0633 96.0014 45.5771L90.0194 53.7724C89.8986 53.3799 89.8344 52.9457 89.8382 52.4546L95.9882 44.0299ZM95.9467 46.2218C95.8655 46.9253 95.7145 47.6212 95.4823 48.3114C95.4162 48.4404 95.3502 48.5712 95.2841 48.6964L90.682 55.0068C90.4725 54.7395 90.2969 54.4588 90.1629 54.1516L95.9467 46.2218ZM94.3233 50.5812C93.8495 51.5728 93.4738 52.5285 93.2983 53.5544L91.5843 55.9018C91.3351 55.6989 91.1067 55.4866 90.9047 55.2685L94.3233 50.5812ZM93.2096 54.2427C93.1699 54.7281 93.1775 55.2306 93.2416 55.7653L92.6017 56.6432C92.3356 56.465 92.0845 56.2867 91.8504 56.1104L93.2096 54.2427ZM93.3115 56.2431C93.3681 56.5655 93.4436 56.903 93.5418 57.25C93.3153 57.1059 93.0963 56.9694 92.883 56.8272L93.3115 56.2431ZM86.3007 50.8921C86.2875 50.9149 86.2743 50.9319 86.2611 50.9547C86.2611 50.9509 86.2611 50.9471 86.2611 50.9471L86.3007 50.8921ZM74.4557 51.7833C74.1329 51.7795 73.8063 51.7644 73.4779 51.7435L74.9276 49.7582C76.3226 48.6945 77.3891 47.369 78.4802 46.2692L74.4557 51.7833ZM73.0853 51.7094C72.7776 51.6828 72.4699 51.643 72.1603 51.5975L72.5171 51.1083C73.0871 50.894 73.6062 50.6342 74.0857 50.3384L73.0853 51.7094ZM71.7866 51.5387C71.6374 51.5122 71.4883 51.4875 71.3392 51.4572C71.5544 51.4098 71.7639 51.3529 71.9659 51.2941L71.7866 51.5387ZM71.998 45.3989C71.7129 45.3325 71.4298 45.2624 71.1485 45.1846L71.9149 44.1323C72.3812 43.9806 72.8455 43.8175 73.291 43.6241L71.998 45.3989ZM70.805 45.0803C70.5237 44.995 70.2443 44.9059 69.9725 44.813L70.031 44.7314C70.4709 44.5835 70.9201 44.447 71.3713 44.3048L70.805 45.0803ZM65.6347 40.3816L65.5158 40.3778C65.2477 40.3665 64.9891 40.3399 64.738 40.2963L68.4265 35.2449C68.7739 35.1444 69.1344 35.0818 69.5195 35.0591L65.6347 40.3816ZM64.3756 40.2223C64.1076 40.1598 63.8509 40.0744 63.5998 39.9701L66.4369 36.0811C66.907 35.8441 67.3789 35.607 67.8772 35.4212L64.3756 40.2223ZM63.2864 39.8298C63.0543 39.718 62.8277 39.589 62.6107 39.4449L64.4304 36.9533C64.9004 36.8168 65.344 36.6234 65.7838 36.4129L63.2864 39.8298ZM69.4666 29.4824C69.325 29.2302 69.1891 28.9818 69.0551 28.7315L84.4452 7.64036C83.9751 8.615 83.4995 9.54223 83.3315 10.4808L69.4666 29.4824ZM62.3332 39.2553C62.2199 39.17 62.1067 39.0808 61.9972 38.9917L61.7725 38.7073L62.9146 37.1411C63.2676 37.1562 63.6017 37.1297 63.9245 37.0709L62.3332 39.2553ZM66.9598 32.9145C66.7201 32.8519 66.4539 32.7855 66.1557 32.7078L68.1925 29.9147C68.4756 29.9375 68.7588 29.9811 69.0476 30.0569L66.9598 32.9145ZM68.8796 28.4016C68.7436 28.1437 68.6115 27.8858 68.485 27.6298L75.9488 17.4C75.9451 17.6901 75.9432 17.9631 75.9507 18.2153C76.3717 17.5612 76.8568 16.9733 77.4061 16.4519L77.4703 15.3142L84.6906 5.41804C84.7906 5.79538 84.8265 6.18979 84.7812 6.60884L68.8796 28.4016ZM61.5573 38.4324L61.059 37.8028L61.7348 36.8775C61.9802 36.9666 62.2293 37.0444 62.4823 37.1031C62.4955 37.1031 62.5087 37.1069 62.5219 37.1069L61.5573 38.4324ZM65.8046 32.6149C65.7498 32.5997 65.6951 32.5845 65.6385 32.5713C65.4403 32.4973 65.2515 32.4082 65.0703 32.3077L66.7937 29.947C67.124 29.9128 67.4563 29.8939 67.7866 29.8977L65.8046 32.6149ZM68.317 27.2866C68.1887 27.0174 68.0641 26.7481 67.9489 26.4789L71.5091 21.5981C71.5732 21.6436 71.6374 21.691 71.7054 21.7384C71.6771 21.6379 71.6525 21.5393 71.628 21.4369L75.9923 15.4564C75.9885 15.9229 75.9734 16.3779 75.962 16.8103L68.317 27.2866ZM77.5061 14.696L77.5269 14.3092C77.5326 13.9338 77.5666 13.5716 77.6232 13.2208L81.7628 7.54745L82.6236 6.75485C83.2918 6.32062 83.7524 5.56215 84.0035 4.47754L84.1696 4.25C84.3263 4.5003 84.4584 4.75818 84.5622 5.02364L77.5061 14.696ZM60.8419 37.5298L60.3436 36.9002L60.7022 36.4072C60.9363 36.5324 61.1723 36.6481 61.4101 36.7486L60.8419 37.5298ZM64.7796 32.1333C64.5625 31.9967 64.3586 31.8375 64.1642 31.6668L65.2874 30.1252C65.6403 30.0873 65.9896 30.0399 66.3388 29.9963L64.7796 32.1333ZM67.7942 26.1186C67.6752 25.8323 67.5639 25.5459 67.4638 25.2596L70.62 20.9326C70.8144 21.0842 71.0183 21.2378 71.2391 21.399L67.7942 26.1186ZM71.5336 20.9951C71.4638 20.6159 71.4222 20.2329 71.4147 19.8441L75.9394 13.6418C75.9734 14.0513 75.9866 14.4704 75.9904 14.8856L71.5336 20.9951ZM77.8157 12.3884C78.1064 11.4156 78.618 10.5453 79.3485 9.77735L80.4905 8.72308L77.8157 12.3884ZM60.1265 36.6253L59.6282 35.9958L59.7471 35.8327C59.9661 35.9768 60.185 36.1133 60.4078 36.2442L60.1265 36.6253ZM63.9188 31.4336C63.7338 31.2477 63.5601 31.0486 63.3959 30.8382L63.8678 30.1916C64.1944 30.2067 64.5191 30.1954 64.8419 30.1707L63.9188 31.4336ZM67.3298 24.8709C67.226 24.558 67.1335 24.2471 67.0542 23.9342L69.7762 20.2044C69.9499 20.3789 70.1424 20.5495 70.3557 20.7221L67.3298 24.8709ZM71.4317 19.2525C71.4675 18.7899 71.5525 18.3177 71.7054 17.8361C71.8149 17.5991 71.9281 17.3526 72.0452 17.0985L75.6997 12.0926C75.7846 12.4244 75.8469 12.779 75.8922 13.1412L71.4317 19.2525ZM59.4111 35.7227L59.2072 35.4667C59.2922 35.5255 59.379 35.5862 59.4677 35.645L59.4111 35.7227ZM63.1845 30.5537C63.0675 30.3926 62.9561 30.2219 62.8485 30.0494C63.058 30.0987 63.2657 30.1366 63.4733 30.1593L63.1845 30.5537ZM66.9542 23.5038C66.8805 23.1719 66.8239 22.8363 66.7824 22.5026L69.0872 19.3455C69.2175 19.5616 69.3685 19.7626 69.5421 19.9579L66.9542 23.5038ZM72.6794 15.6593C72.9777 14.9312 73.2457 14.1708 73.4175 13.4104L75.2391 10.9151C75.375 11.1521 75.4864 11.41 75.5807 11.6849L72.6794 15.6593ZM66.7333 22.0001C66.7069 21.6436 66.6993 21.2871 66.7144 20.9307L68.6474 18.2646C68.7135 18.5377 68.8003 18.7861 68.9098 19.0174L66.7333 22.0001ZM73.5534 12.6538C73.6063 12.2462 73.627 11.8385 73.6006 11.4403L74.5652 10.1111C74.7464 10.2571 74.9031 10.4258 75.0428 10.6136L73.5534 12.6538ZM66.7654 20.2841C66.8182 19.8385 66.9051 19.3929 67.0297 18.9435L68.502 16.9146C68.5039 17.2388 68.5247 17.5346 68.5643 17.8058L66.7654 20.2841ZM67.4204 17.8323C67.7017 17.1667 68.0754 16.4974 68.5511 15.8205C68.536 15.9949 68.5247 16.1618 68.5171 16.3229L67.4204 17.8323ZM73.5421 10.9454C73.5024 10.7008 73.4401 10.46 73.3571 10.223L73.7573 9.67306C73.9498 9.73753 74.1272 9.82096 74.2877 9.91767L73.5421 10.9454ZM73.2098 9.85509C73.1589 9.74322 73.1023 9.63324 73.04 9.52516C73.1683 9.53654 73.291 9.55739 73.4099 9.58015L73.2098 9.85509Z" fill="#BCBEC0"/>
<path d="M8.5142 39.792V37.8958C6.20749 37.7839 4.36136 37.0994 2.97393 35.8441C1.58651 34.5889 0.893738 32.9961 0.893738 31.0714C0.893738 29.3706 1.40152 27.92 2.41896 26.7216C3.75731 25.1516 5.78843 24.3248 8.5142 24.2433V22.3471H11.9969V24.2433C14.7227 24.323 16.7557 25.1516 18.0922 26.7216C19.1077 27.92 19.6155 29.3706 19.6155 31.0714C19.6155 32.998 18.9227 34.5888 17.5353 35.846C16.1479 37.1032 14.3018 37.7858 11.995 37.8977V39.7939H8.5142V39.792ZM8.5142 35.3701V26.769C7.01541 26.8164 5.91113 27.2962 5.19948 28.2025C4.65017 28.9326 4.37646 29.8465 4.37646 30.9482C4.37646 32.4215 4.82761 33.5554 5.7318 34.3518C6.50574 35.0288 7.43258 35.3701 8.5142 35.3701ZM11.9969 26.769V35.3701C13.0786 35.3701 14.0054 35.0288 14.7793 34.348C15.6816 33.5365 16.1328 32.3969 16.1328 30.9368C16.1328 29.8294 15.8591 28.9193 15.3098 28.2063C14.5849 27.2962 13.4806 26.8164 11.9969 26.769ZM36.8876 28.0812H33.2595C33.0179 27.2393 32.7102 26.6078 32.3402 26.185C31.6625 25.4398 30.647 25.0663 29.2916 25.0663C28.2761 25.0663 27.3964 25.4152 26.6546 26.111C25.5748 27.1483 25.035 28.7998 25.035 31.0695C25.035 32.9468 25.4144 34.4182 26.1713 35.4801C26.9302 36.54 27.9703 37.069 29.2916 37.069C30.6149 37.069 31.621 36.6652 32.3157 35.8536C32.7026 35.4023 33.0254 34.7197 33.2821 33.8133H36.8876C36.5176 35.92 35.6379 37.5317 34.2524 38.6505C32.9612 39.7028 31.3567 40.2281 29.437 40.2281C26.8886 40.2281 24.9066 39.3957 23.4871 37.7289C22.1015 36.1077 21.4069 33.8892 21.4069 31.0695C21.4069 28.0565 22.2299 25.7223 23.8759 24.0708C25.2936 22.6278 27.1001 21.9072 29.2935 21.9072C31.8098 21.9072 33.7616 22.6524 35.149 24.1428C36.1948 25.2616 36.7762 26.5737 36.8876 28.0812ZM39.9116 39.792V22.3452H43.5397V29.4407L50.1672 22.3452H54.8599L47.7737 29.4881L55.2733 39.792H50.6769L45.3065 32.0669L43.5397 33.8892V39.792H39.9116Z" fill="#20459B"/>
<path d="M117.732 39.792V22.3452H130.479V25.3583H121.215V29.2227H129.73V32.2376H121.215V36.6329H130.891V39.792H117.732ZM139.283 32.5031V29.6341H144.51C144.51 28.5818 144.178 27.609 143.516 26.7178C142.689 25.6161 141.539 25.0644 140.065 25.0644C138.287 25.0644 137.124 25.9631 136.594 27.7626H132.947C133.222 25.9328 134.004 24.4974 135.293 23.4621C136.584 22.4249 138.26 21.9072 140.325 21.9072C142.857 21.9072 144.848 22.8155 146.3 24.6282C147.623 26.2969 148.284 28.4035 148.284 30.9463C148.284 34.3499 147.332 36.8491 145.428 38.4533C144.042 39.6384 142.357 40.2281 140.373 40.2281C138.341 40.2281 136.663 39.6384 135.342 38.4533C134.1 37.3686 133.309 35.9351 132.971 34.1527H136.599C137.245 36.1115 138.438 37.0861 140.178 37.0671C141.517 37.052 142.574 36.631 143.348 35.8043C144.121 34.9776 144.508 33.8778 144.508 32.5012H139.283V32.5031ZM165.894 28.0812H162.266C162.024 27.2393 161.716 26.6078 161.346 26.185C160.671 25.4398 159.655 25.0663 158.3 25.0663C157.284 25.0663 156.404 25.4152 155.663 26.111C154.583 27.1483 154.043 28.7998 154.043 31.0695C154.043 32.9468 154.422 34.4182 155.181 35.4801C155.938 36.54 156.978 37.069 158.302 37.069C159.623 37.069 160.631 36.6652 161.326 35.8536C161.713 35.4023 162.035 34.7197 162.294 33.8133H165.897C165.528 35.92 164.648 37.5317 163.262 38.6505C161.971 39.7028 160.369 40.2281 158.447 40.2281C155.899 40.2281 153.917 39.3957 152.497 37.7289C151.111 36.1077 150.417 33.8892 150.417 31.0695C150.417 28.0565 151.24 25.7223 152.884 24.0708C154.303 22.6278 156.11 21.9072 158.303 21.9072C160.818 21.9072 162.77 22.6524 164.157 24.1428C165.201 25.2616 165.782 26.5737 165.894 28.0812Z" fill="#BCBEC0"/>
</g>
<defs>
<clipPath id="clip0">
<rect width="165" height="60" fill="white" transform="translate(0.893738 0.75)"/>
</clipPath>
</defs>
</svg>
