<svg width="131" height="61" viewBox="0 0 131 61" fill="none" xmlns="http://www.w3.org/2000/svg">
<path fill-rule="evenodd" clip-rule="evenodd" d="M43.8905 20.7537L35.1593 20.7518L33.3387 40.7408L39.919 40.7445C41.1352 40.7445 41.7677 40.2783 42.2257 39.5092C42.4922 39.0595 42.9915 37.5525 43.196 36.9651C43.4963 36.1043 43.8098 35.2324 44.1476 34.4046C44.3522 33.9053 44.8908 32.1725 45.1142 31.8568L44.2471 40.7427H52.9595L54.7632 20.9629L54.7444 20.75H47.6029C46.6438 20.75 45.8556 21.7063 45.6022 22.4424C45.4445 22.9031 45.2981 23.3583 45.1348 23.8374C44.9997 24.2357 44.7557 24.8157 44.6769 25.1883C44.5737 25.6711 42.9408 30.5701 42.8075 30.638L43.8905 20.7537ZM66.5405 36.3043L66.5386 36.5686H64.3202L64.3052 36.4071L64.7537 31.6476L66.9459 31.6494L66.5405 36.3043ZM55.2024 40.7445L72.6535 40.7463C73.7796 40.7463 74.4459 40.1406 74.8269 39.3825C75.1741 38.6887 75.114 37.2093 75.2811 36.2841C75.4575 35.3113 75.4106 34.0319 75.5607 33.0664C75.679 32.2992 75.8423 30.5407 75.8423 29.7992V29.6377C75.8423 29.0962 75.3787 28.3693 75.0521 28.083C74.6223 27.7067 74.0855 27.4699 73.2991 27.4699L65.1141 27.4681L65.2943 25.46H76.212L76.6005 21.2291V20.7518L56.9891 20.75L55.2024 40.7445ZM94.4552 40.7463C96.3733 40.7463 96.9795 39.1402 96.9964 37.2551C97.0002 36.8954 97.0978 36.1979 97.1485 35.8693C97.2273 35.37 97.1447 34.9699 97.2367 34.4743C97.3474 33.8686 97.4882 32.3726 97.4844 31.7559C97.4825 31.4255 97.5576 30.7812 97.5933 30.3278C97.6233 29.9515 97.7415 29.4211 97.7584 29.0081C97.7903 28.1784 97.856 27.0551 97.9949 26.2768C98.0906 25.7445 98.2464 24.0044 98.2446 23.507C98.2408 22.5672 98.4585 21.6953 98.4585 20.7555H89.748L88.9465 29.8506H86.775L87.5333 21.0712L87.5314 20.7537H78.819L77.9143 31.2291L77.9012 31.4934C77.9012 33.1123 78.8734 34.0319 80.5513 34.0319H88.5599L88.3854 36.0419H77.4695L77.0979 40.4343L77.0904 40.75H94.4552V40.7463ZM32.0212 29.4284C32.2539 29.4284 32.267 28.1564 32.2952 27.8994C32.3477 27.4369 32.3346 26.7375 32.4116 26.2658C32.5279 25.5371 32.725 23.83 32.725 23.0811C32.725 22.0055 31.6683 20.7537 30.6135 20.7537H15.7375C14.846 20.7537 14.1872 21.0547 13.7461 21.5062C13.1774 22.0881 13.1793 22.5415 13.0104 23.4813C12.9034 24.0705 12.8227 25.3774 12.8171 25.9905C12.8114 26.5191 12.6744 27.8535 12.5862 28.4097C12.4642 29.1623 12.4961 30.1076 12.3685 30.895C12.284 31.42 12.1695 32.7893 12.1639 33.3399C12.1489 34.9185 11.7322 36.6512 11.7322 38.261V38.4703C11.7322 39.6432 12.8039 40.7445 14.0051 40.7445H28.6128C30.7862 40.7445 31.353 39.4082 31.4243 37.3579C31.4863 35.5683 31.9123 33.6024 31.9123 31.7522H23.2018L22.8245 36.0382H20.6586L21.5764 25.4581H23.7423L23.4308 29.4284H32.0212ZM110.709 30.3756H108.541L109.008 25.46L111.137 25.4618L110.709 30.3756ZM98.8827 40.7463L107.612 40.7482L108.143 34.8763V34.5569H116.745C120.052 34.5569 119.19 30.5646 119.688 27.8076C119.81 27.1358 119.744 26.2383 119.879 25.6142C119.986 25.1259 120.022 23.9126 120.044 23.3418C120.078 22.4974 120.063 22.0844 119.547 21.5576C119.232 21.2346 118.485 20.7518 117.88 20.7518H100.671L98.8827 40.7463Z" fill="#149FA5"/>
</svg>
